<?xml version="1.0" encoding="UTF-8" standalone="no"?>
<svg
   xmlns:dc="http://purl.org/dc/elements/1.1/"
   xmlns:cc="http://creativecommons.org/ns#"
   xmlns:rdf="http://www.w3.org/1999/02/22-rdf-syntax-ns#"
   xmlns:svg="http://www.w3.org/2000/svg"
   xmlns="http://www.w3.org/2000/svg"
   xmlns:sodipodi="http://sodipodi.sourceforge.net/DTD/sodipodi-0.dtd"
   xmlns:inkscape="http://www.inkscape.org/namespaces/inkscape"
   inkscape:version="1.0 (4035a4fb49, 2020-05-01)"
   sodipodi:docname="after.svg"
   viewBox="0 0 13.208335 69.333336"
   height="69.333336"
   width="13.208335"
   id="svg2"
   version="1.1">
  <metadata
     id="metadata8">
    <rdf:RDF>
      <cc:Work
         rdf:about="">
        <dc:format>image/svg+xml</dc:format>
        <dc:type
           rdf:resource="http://purl.org/dc/dcmitype/StillImage" />
        <dc:title></dc:title>
      </cc:Work>
    </rdf:RDF>
  </metadata>
  <defs
     id="defs6" />
  <sodipodi:namedview
     inkscape:current-layer="g10"
     inkscape:window-maximized="1"
     inkscape:window-y="-8"
     inkscape:window-x="-8"
     inkscape:cy="37.326272"
     inkscape:cx="39.442402"
     inkscape:zoom="5.6158626"
     fit-margin-bottom="0"
     fit-margin-right="0"
     fit-margin-left="0"
     fit-margin-top="0"
     showgrid="false"
     id="namedview4"
     inkscape:window-height="716"
     inkscape:window-width="1366"
     inkscape:pageshadow="2"
     inkscape:pageopacity="0"
     guidetolerance="10"
     gridtolerance="10"
     objecttolerance="10"
     borderopacity="1"
     bordercolor="#666666"
     pagecolor="#ffffff" />
  <g
     transform="translate(32.942402,2.8262718)"
     id="g10"
     inkscape:label="Image"
     inkscape:groupmode="layer">
    <g
       style="fill:#ffffff"
       transform="translate(-32.942402,-2.4929385)"
       id="g14">
      <path
         id="path30"
         d="M 2.0055769,67.25 2.0111539,65.5 3.0402422,61.794687 4.0693305,58.089374 5.4241569,58.60927 6.7789832,59.129166 6.2272073,61.314583 5.6754314,63.5 4.5877157,64.234687 3.5,64.969374 4.75,64.984687 6,65 v 2 2 H 4 2 L 2.00558,67.25 Z M 5.1239294,11.37265 3.9268288,8.7453008 3.3346797,4.425102 2.7425306,0.10490319 4.8202852,0.26141568 6.8980399,0.41792818 5.8265752,1.7089641 4.7551106,3 H 6 7.2448894 L 6.1311207,4.3420093 5.0173519,5.6840185 5.7315883,6.3982549 6.4458247,7.1124913 6.6661327,10.556246 6.8864408,14 H 6.6037354 6.32103 Z"
         style="fill:#ffffff" />
      <path
         id="path28"
         d="M 6,67 V 65 L 4.75,64.984687 3.5,64.969374 4.5877157,64.234687 5.6754314,63.5 6.2272073,61.314583 6.7789832,59.129166 5.1675167,58.510788 3.5560502,57.89241 5.0280251,56.961518 6.5,56.030626 5.73658,56.015313 4.97316,56 6.5387409,52.25 8.1043219,48.5 8.9325952,47.669566 9.7608686,46.839131 9.0948481,50.669566 8.4288276,54.5 8.5480439,61.75 8.6672601,69 H 7.3336301 6 Z M 7.4218807,15.65702 6.9065309,14.31404 6.6761778,10.713266 6.4458247,7.1124913 5.7315883,6.3982549 5.0173519,5.6840185 6.1311207,4.3420093 7.2448894,3 H 6.2891114 5.3333333 V 1.6129453 0.22589065 L 6.9166667,0.45821143 8.5,0.69053221 8.5454767,8.8452661 8.5909535,17 H 8.264092 7.9372304 Z"
         style="fill:#ffffff" />
      <path
         id="path26"
         d="M 8.5427051,68.069098 7.9673762,67.138197 8.9836881,66.510081 10,65.881966 V 67.440983 69 H 9.559017 9.118034 Z M 8.6449933,55.716618 8.8232221,46.5 9.8457419,44 l 1.0225201,-2.5 -0.55778,11 -0.5577795,11 -0.642969,0.716618 -0.642969,0.716617 z M 7.5527864,17.08541 6.9673762,16.138197 8.0243654,15.484941 9.0813546,14.831686 8.4335434,12.790614 7.7857321,10.749541 8.8928661,11.433788 10,12.118034 V 14.5 16.881966 L 9.0690983,17.457295 8.1381966,18.032624 Z M 8.9234887,9.75 8.8469775,9.5 8.5125554,7.7539708 8.1781333,6.0079416 8.8769254,5.5760643 9.5757176,5.144187 9.7766573,7.5720935 9.977597,10 H 9.4887985 9 Z m 0,-6 L 8.8469775,3.5 8.5119726,1.75 8.1769677,0 H 9.0884839 10 V 2 4 H 9.5 9 Z"
         style="fill:#ffffff" />
      <path
         id="path24"
         d="M 9.6420836,66.509668 8.9344349,64.665565 9.8543497,63.74565 10.774265,62.825735 11.262,63.662868 11.749736,64.5 11.049734,66.426885 10.349732,68.353771 Z M 10.194949,59.5 l 0.03705,-3 0.460988,1.769032 0.460988,1.769032 -0.498042,1.230968 -0.498042,1.230968 0.03705,-3 z m -0.05646,-7.220194 0.24549,-4.160529 0.783382,0.484157 0.783383,0.484157 -0.348876,2.996376 -0.348876,2.996376 -0.679996,0.679996 -0.6799962,0.679996 z M 11,41.559017 V 39 h 0.383369 0.383368 l 0.522752,1.999004 0.522751,1.999004 -0.90612,0.560013 L 11,44.118034 Z M 9.891378,22.25 9.7827559,21.5 9.6345749,15.665516 9.4863938,9.8310323 10.106594,8.8275274 10.726794,7.8240225 10.750506,15.412011 10.774219,23 H 10.387109 10 Z M 9.6812228,3.75 10.187971,0.5 10.593985,0.08333333 11,-0.33333333 V 3.3333333 7 H 10.087237 9.1744749 Z"
         style="fill:#ffffff" />
      <path
         id="path22"
         d="m 10.710251,67 0.523012,-2 H 11.616631 12 v 2 2 H 11.09362 10.187239 Z M 10.5,63 9.881966,62 H 10.940983 12 v 1 1 h -0.440983 -0.440983 z m 0.545837,-8.085646 1.116204,-2.085647 0.442518,0.442519 0.442518,0.442518 L 12.41655,55.356872 11.786022,57 H 10.857827 9.9296325 Z M 11.53122,48.706872 10.752923,46.913744 11.376461,46.290205 12,45.666667 l 0.588397,0.588397 0.588398,0.588398 -0.433639,1.828269 L 12.309517,50.5 Z M 12.078947,38.416667 12.157895,36.5 12.683114,37.8125 13.208333,39.125 12.604167,39.729167 12,40.333333 12.07895,38.416667 Z m 0,-6 0.07895,-1.916667 0.525219,1.3125 0.525219,1.3125 -0.604166,0.604167 L 12,34.333333 Z M 10.638374,24.5 10.06277,23 H 11.031385 12 V 24.5 26 H 11.606989 11.213978 Z M 10.700289,19.661349 10.1866,18.322697 10.990939,14.911349 11.795277,11.5 11.897639,16.25 12,21 H 11.606989 11.213978 Z M 10.5,10 11.118034,9 H 11.559017 12 v 1 1 H 10.940983 9.881966 Z M 11.078947,4.4166667 11.157895,2.5 11.683114,3.8125 12.208333,5.125 11.604167,5.7291667 11,6.3333333 Z"
         style="fill:#ffffff" />
      <path
         id="path20"
         d="M 11.916667,65.75 11.833333,62.5 11.540007,60 11.246681,57.5 12.092932,56 12.939183,54.5 12.969591,61.75 13,69 H 12.5 12 Z M 12.078947,51.416667 12.157895,49.5 12.683114,50.8125 13.208333,52.125 12.604167,52.729167 12,53.333333 Z M 11.603772,14.479734 11.707544,0.95912257 12.353772,0.31289462 13,-0.33333333 V 13.833333 28 l -0.75,1.73e-4 -0.75,1.73e-4 z"
         style="fill:#ffffff" />
      <path
         id="path18"
         d="M 11.078947,36.416667 11.157895,34.5 11.683114,35.8125 12.208333,37.125 11.604167,37.729167 11,38.333333 11.07895,36.416667 Z"
         style="fill:#ffffff" />
      <path
         id="path16"
         d="M 0,34.5 V 0 H 0.87219178 1.7443836 L 2.3785919,3.9661209 3.0128002,7.9322419 6.4169318,15.716121 9.8210633,23.5 l 1.1526837,4.341621 1.152683,4.34162 -1.031223,4.808427 -1.031223,4.808426 L 6.0319921,51.80064 2,61.801185 V 65.400593 69 H 1 0 Z"
         style="fill:#ffffff" />
    </g>
  </g>
</svg>
